<?xml version="1.0" encoding="utf-8"?>
<!-- Generator: Adobe Illustrator 19.0.0, SVG Export Plug-In . SVG Version: 6.00 Build 0)  -->
<svg version="1.1" id="Layer_1" xmlns="http://www.w3.org/2000/svg" xmlns:xlink="http://www.w3.org/1999/xlink" x="0px" y="0px"
	 viewBox="0 0 400 150" style="enable-background:new 0 0 400 150;" xml:space="preserve">
<style type="text/css">
	.st0{fill:#DB3A3A;}
</style>
<g id="XMLID_2_">
	<path id="XMLID_14_" class="st0" d="M348.4,75.7c0-1.3,0.4-2.8,0.7-4.1c1.9-7.7,8.6-12.7,15.6-12.7c10.9,0,16.9,9.7,16.9,21
		c0,13-6.3,21.9-17.2,21.9c-7.4,0-13.6-4.9-15.5-12.1c-0.4-1.3-0.5-2.7-0.5-4.2V75.7z M338.2,131.9h10.2v-30.9h0.2
		c3.4,5.6,10,8.9,17.5,8.9c13.4,0,25.9-10.1,25.9-30.5c0-17.1-10.3-28.7-24.2-28.7c-9.3,0-16.1,4-20.2,10.9h-0.2l-0.6-9.7h-9.2
		c0.2,5.4,0.5,11.3,0.5,18.5V131.9z M287.9,106c4,2.3,9.7,4,16,4c13.3,0,21.1-7,21.1-17.1c0-8.4-5.2-13.4-14.9-17
		c-7.4-2.9-10.7-5-10.7-9.7c0-4.2,3.3-7.7,9.4-7.7c5.3,0,9.4,2,11.6,3.4l2.5-7.5c-3.1-2-8.1-3.5-13.8-3.5
		c-12.1,0-19.6,7.5-19.6,16.7c0,6.8,4.8,12.3,15.1,16.1c7.5,2.8,10.4,5.4,10.4,10.3c0,4.8-3.5,8.4-10.9,8.4c-5.2,0-10.6-2.1-13.7-4
		L287.9,106z M251.1,58.5c12.2,0,17,12.1,17,21.7c0,12.8-7.4,22.1-17.2,22.1c-10.1,0-17.1-9.4-17.1-21.8
		C233.8,69.7,239.1,58.5,251.1,58.5z M251.4,50.7c-15.6,0-28.2,11.1-28.2,30c0,18,12,29.2,27.2,29.2c13.6,0,28.3-9.2,28.3-30.2
		C278.7,62.6,267.7,50.7,251.4,50.7z M151,29.6v79.1h10.3V71.6h38.3v37.1H210V29.6h-10.3v33.1h-38.3V29.6H151z M112.4,108.7h10.3
		V78.4c0-1.6,0.1-3.4,0.4-4.8c1.4-7.7,6.6-13.1,13.8-13.1c1.4,0,2.5,0,3.5,0.2v-9.7c-0.9-0.1-1.8-0.2-2.8-0.2
		c-6.9,0-13.3,4.8-15.8,12.4h-0.4L121,51.9h-9c0.4,5.3,0.5,11,0.5,17.7V108.7z M71.8,58.5c12.2,0,17,12.1,17,21.7
		c0,12.8-7.4,22.1-17.2,22.1c-10.1,0-17.1-9.4-17.1-21.8C54.5,69.7,59.8,58.5,71.8,58.5z M72.1,50.7c-15.6,0-28.2,11.1-28.2,30
		c0,18,12,29.2,27.2,29.2c13.6,0,28.3-9.2,28.3-30.2C99.4,62.6,88.4,50.7,72.1,50.7z M26.5,108.7V59.7h13.7v-7.9H26.5v-3.1
		c0-8.8,2.2-16.4,11-16.4c3.1,0,5,0.6,6.6,1.3l1.4-8c-2-0.8-5-1.6-8.8-1.6c-4.8,0-10,1.5-13.8,5.3c-4.7,4.6-6.6,11.9-6.6,19.8v2.7
		H8.5v7.9h7.9v48.9H26.5z"/>
</g>
</svg>
